<?xml version="1.0" encoding="utf-8"?>
<!-- Generator: Adobe Illustrator 28.1.0, SVG Export Plug-In . SVG Version: 6.00 Build 0)  -->
<svg version="1.1" id="Layer_1" xmlns="http://www.w3.org/2000/svg" xmlns:xlink="http://www.w3.org/1999/xlink" x="0px" y="0px"
	 viewBox="0 0 768 768" style="enable-background:new 0 0 768 768;" xml:space="preserve">
<style type="text/css">
	.st0{fill:#FFFFFF;}
	.st1{fill:#FFFFFF;stroke:#000000;stroke-width:5;stroke-linecap:round;stroke-miterlimit:10;}
</style>
<g>
	<path class="st0" d="M384,763.8c-51.3,0-101-10-147.8-29.8c-45.2-19.1-85.8-46.5-120.7-81.4S53.2,577,34.1,531.8
		C14.3,485,4.2,435.3,4.2,384c0-51.3,10-101,29.8-147.8c19.1-45.2,46.5-85.8,81.4-120.7S191,53.2,236.2,34.1
		C283,14.3,332.7,4.2,384,4.2c51.3,0,101,10,147.8,29.8c45.2,19.1,85.8,46.5,120.7,81.4s62.3,75.5,81.4,120.7
		c19.8,46.8,29.8,96.5,29.8,147.8c0,51.3-10,101-29.8,147.8c-19.1,45.2-46.5,85.8-81.4,120.7s-75.5,62.3-120.7,81.4
		C485,753.7,435.3,763.8,384,763.8z"/>
	<path d="M384,6.7c50.9,0,100.3,10,146.8,29.6c44.9,19,85.3,46.2,119.9,80.9c34.6,34.6,61.9,75,80.9,119.9
		c19.7,46.5,29.6,95.9,29.6,146.8s-10,100.3-29.6,146.8c-19,44.9-46.2,85.3-80.9,119.9c-34.6,34.6-75,61.9-119.9,80.9
		c-46.5,19.7-95.9,29.6-146.8,29.6s-100.3-10-146.8-29.6c-44.9-19-85.3-46.2-119.9-80.9c-34.6-34.6-61.9-75-80.9-119.9
		C16.7,484.3,6.7,434.9,6.7,384s10-100.3,29.6-146.8c19-44.9,46.2-85.3,80.9-119.9s75-61.9,119.9-80.9C283.7,16.7,333.1,6.7,384,6.7
		 M384,1.7C172.9,1.7,1.7,172.9,1.7,384S172.9,766.3,384,766.3S766.3,595.1,766.3,384S595.1,1.7,384,1.7L384,1.7z"/>
</g>
<polyline class="st1" points="628.3,579.4 384,97.1 139.7,579.4 "/>
</svg>
